<svg xmlns="http://www.w3.org/2000/svg" width="303" height="359" viewBox="0 0 303 359">
  <g id="Group_3556" data-name="Group 3556" transform="translate(4340.61 -4462.29)" opacity="0.42">
    <g id="Group_97" data-name="Group 97" transform="translate(-4340.61 4462)">
      <rect id="Rectangle_86" data-name="Rectangle 86" width="5" height="6" transform="translate(298 0.29)" fill="#27debf"/>
      <rect id="Rectangle_87" data-name="Rectangle 87" width="6" height="6" transform="translate(274 0.29)" fill="#27debf"/>
      <rect id="Rectangle_88" data-name="Rectangle 88" width="7" height="6" transform="translate(251 0.29)" fill="#27debf"/>
      <rect id="Rectangle_89" data-name="Rectangle 89" width="6" height="6" transform="translate(229 0.29)" fill="#27debf"/>
      <rect id="Rectangle_90" data-name="Rectangle 90" width="6" height="6" transform="translate(206 0.29)" fill="#27debf"/>
      <rect id="Rectangle_91" data-name="Rectangle 91" width="6" height="6" transform="translate(183 0.29)" fill="#27debf"/>
      <rect id="Rectangle_92" data-name="Rectangle 92" width="7" height="6" transform="translate(160 0.29)" fill="#27debf"/>
      <rect id="Rectangle_93" data-name="Rectangle 93" width="6" height="6" transform="translate(138 0.29)" fill="#27debf"/>
      <rect id="Rectangle_94" data-name="Rectangle 94" width="7" height="6" transform="translate(115 0.29)" fill="#27debf"/>
      <rect id="Rectangle_95" data-name="Rectangle 95" width="7" height="6" transform="translate(91 0.29)" fill="#27debf"/>
      <rect id="Rectangle_96" data-name="Rectangle 96" width="6" height="6" transform="translate(69 0.29)" fill="#27debf"/>
      <rect id="Rectangle_97" data-name="Rectangle 97" width="6" height="6" transform="translate(46 0.29)" fill="#27debf"/>
      <rect id="Rectangle_98" data-name="Rectangle 98" width="7" height="6" transform="translate(23 0.29)" fill="#27debf"/>
      <rect id="Rectangle_99" data-name="Rectangle 99" width="7" height="6" transform="translate(0 0.29)" fill="#27debf"/>
    </g>
    <g id="Group_106" data-name="Group 106" transform="translate(-4340.61 4554.24)">
      <rect id="Rectangle_86-2" data-name="Rectangle 86" width="5" height="7" transform="translate(298 0.05)" fill="#27debf"/>
      <rect id="Rectangle_87-2" data-name="Rectangle 87" width="6" height="7" transform="translate(274 0.05)" fill="#27debf"/>
      <rect id="Rectangle_88-2" data-name="Rectangle 88" width="7" height="7" transform="translate(251 0.05)" fill="#27debf"/>
      <rect id="Rectangle_89-2" data-name="Rectangle 89" width="6" height="7" transform="translate(229 0.05)" fill="#27debf"/>
      <rect id="Rectangle_90-2" data-name="Rectangle 90" width="6" height="7" transform="translate(206 0.05)" fill="#27debf"/>
      <rect id="Rectangle_91-2" data-name="Rectangle 91" width="6" height="7" transform="translate(183 0.05)" fill="#27debf"/>
      <rect id="Rectangle_92-2" data-name="Rectangle 92" width="7" height="7" transform="translate(160 0.05)" fill="#27debf"/>
      <rect id="Rectangle_93-2" data-name="Rectangle 93" width="6" height="7" transform="translate(138 0.05)" fill="#27debf"/>
      <rect id="Rectangle_94-2" data-name="Rectangle 94" width="7" height="7" transform="translate(115 0.05)" fill="#27debf"/>
      <rect id="Rectangle_95-2" data-name="Rectangle 95" width="7" height="7" transform="translate(91 0.05)" fill="#27debf"/>
      <rect id="Rectangle_96-2" data-name="Rectangle 96" width="6" height="7" transform="translate(69 0.05)" fill="#27debf"/>
      <rect id="Rectangle_97-2" data-name="Rectangle 97" width="6" height="7" transform="translate(46 0.05)" fill="#27debf"/>
      <rect id="Rectangle_98-2" data-name="Rectangle 98" width="7" height="7" transform="translate(23 0.05)" fill="#27debf"/>
      <rect id="Rectangle_99-2" data-name="Rectangle 99" width="7" height="7" transform="translate(0 0.05)" fill="#27debf"/>
    </g>
    <g id="Group_111" data-name="Group 111" transform="translate(-4340.61 4647.968)">
      <rect id="Rectangle_86-3" data-name="Rectangle 86" width="5" height="5" transform="translate(298 0.322)" fill="#27debf"/>
      <rect id="Rectangle_87-3" data-name="Rectangle 87" width="6" height="5" transform="translate(274 0.322)" fill="#27debf"/>
      <rect id="Rectangle_88-3" data-name="Rectangle 88" width="7" height="5" transform="translate(251 0.322)" fill="#27debf"/>
      <rect id="Rectangle_89-3" data-name="Rectangle 89" width="6" height="5" transform="translate(229 0.322)" fill="#27debf"/>
      <rect id="Rectangle_90-3" data-name="Rectangle 90" width="6" height="5" transform="translate(206 0.322)" fill="#27debf"/>
      <rect id="Rectangle_91-3" data-name="Rectangle 91" width="6" height="5" transform="translate(183 0.322)" fill="#27debf"/>
      <rect id="Rectangle_92-3" data-name="Rectangle 92" width="7" height="5" transform="translate(160 0.322)" fill="#27debf"/>
      <rect id="Rectangle_93-3" data-name="Rectangle 93" width="6" height="5" transform="translate(138 0.322)" fill="#27debf"/>
      <rect id="Rectangle_94-3" data-name="Rectangle 94" width="7" height="5" transform="translate(115 0.322)" fill="#27debf"/>
      <rect id="Rectangle_95-3" data-name="Rectangle 95" width="7" height="5" transform="translate(91 0.322)" fill="#27debf"/>
      <rect id="Rectangle_96-3" data-name="Rectangle 96" width="6" height="5" transform="translate(69 0.322)" fill="#27debf"/>
      <rect id="Rectangle_97-3" data-name="Rectangle 97" width="6" height="5" transform="translate(46 0.322)" fill="#27debf"/>
      <rect id="Rectangle_98-3" data-name="Rectangle 98" width="7" height="5" transform="translate(23 0.322)" fill="#27debf"/>
      <rect id="Rectangle_99-3" data-name="Rectangle 99" width="7" height="5" transform="translate(0 0.322)" fill="#27debf"/>
    </g>
    <g id="Group_116" data-name="Group 116" transform="translate(-4340.61 4740.952)">
      <rect id="Rectangle_86-4" data-name="Rectangle 86" width="5" height="5" transform="translate(298 0.338)" fill="#27debf"/>
      <rect id="Rectangle_87-4" data-name="Rectangle 87" width="6" height="5" transform="translate(274 0.338)" fill="#27debf"/>
      <rect id="Rectangle_88-4" data-name="Rectangle 88" width="7" height="5" transform="translate(251 0.338)" fill="#27debf"/>
      <rect id="Rectangle_89-4" data-name="Rectangle 89" width="6" height="5" transform="translate(229 0.338)" fill="#27debf"/>
      <rect id="Rectangle_90-4" data-name="Rectangle 90" width="6" height="5" transform="translate(206 0.338)" fill="#27debf"/>
      <rect id="Rectangle_91-4" data-name="Rectangle 91" width="6" height="5" transform="translate(183 0.338)" fill="#27debf"/>
      <rect id="Rectangle_92-4" data-name="Rectangle 92" width="7" height="5" transform="translate(160 0.338)" fill="#27debf"/>
      <rect id="Rectangle_93-4" data-name="Rectangle 93" width="6" height="5" transform="translate(138 0.338)" fill="#27debf"/>
      <rect id="Rectangle_94-4" data-name="Rectangle 94" width="7" height="5" transform="translate(115 0.338)" fill="#27debf"/>
      <rect id="Rectangle_95-4" data-name="Rectangle 95" width="7" height="5" transform="translate(91 0.338)" fill="#27debf"/>
      <rect id="Rectangle_96-4" data-name="Rectangle 96" width="6" height="5" transform="translate(69 0.338)" fill="#27debf"/>
      <rect id="Rectangle_97-4" data-name="Rectangle 97" width="6" height="5" transform="translate(46 0.338)" fill="#27debf"/>
      <rect id="Rectangle_98-4" data-name="Rectangle 98" width="7" height="5" transform="translate(23 0.338)" fill="#27debf"/>
      <rect id="Rectangle_99-4" data-name="Rectangle 99" width="7" height="5" transform="translate(0 0.338)" fill="#27debf"/>
    </g>
    <g id="Group_98" data-name="Group 98" transform="translate(-4340.61 4480.597)">
      <rect id="Rectangle_86-5" data-name="Rectangle 86" width="5" height="6" transform="translate(298 -0.306)" fill="#27debf"/>
      <rect id="Rectangle_87-5" data-name="Rectangle 87" width="6" height="6" transform="translate(274 -0.306)" fill="#27debf"/>
      <rect id="Rectangle_88-5" data-name="Rectangle 88" width="7" height="6" transform="translate(251 -0.306)" fill="#27debf"/>
      <rect id="Rectangle_89-5" data-name="Rectangle 89" width="6" height="6" transform="translate(229 -0.306)" fill="#27debf"/>
      <rect id="Rectangle_90-5" data-name="Rectangle 90" width="6" height="6" transform="translate(206 -0.306)" fill="#27debf"/>
      <rect id="Rectangle_91-5" data-name="Rectangle 91" width="6" height="6" transform="translate(183 -0.306)" fill="#27debf"/>
      <rect id="Rectangle_92-5" data-name="Rectangle 92" width="7" height="6" transform="translate(160 -0.306)" fill="#27debf"/>
      <rect id="Rectangle_93-5" data-name="Rectangle 93" width="6" height="6" transform="translate(138 -0.306)" fill="#27debf"/>
      <rect id="Rectangle_94-5" data-name="Rectangle 94" width="7" height="6" transform="translate(115 -0.306)" fill="#27debf"/>
      <rect id="Rectangle_95-5" data-name="Rectangle 95" width="7" height="6" transform="translate(91 -0.306)" fill="#27debf"/>
      <rect id="Rectangle_96-5" data-name="Rectangle 96" width="6" height="6" transform="translate(69 -0.306)" fill="#27debf"/>
      <rect id="Rectangle_97-5" data-name="Rectangle 97" width="6" height="6" transform="translate(46 -0.306)" fill="#27debf"/>
      <rect id="Rectangle_98-5" data-name="Rectangle 98" width="7" height="6" transform="translate(23 -0.306)" fill="#27debf"/>
      <rect id="Rectangle_99-5" data-name="Rectangle 99" width="7" height="6" transform="translate(0 -0.306)" fill="#27debf"/>
    </g>
    <g id="Group_105" data-name="Group 105" transform="translate(-4340.61 4574.325)">
      <rect id="Rectangle_86-6" data-name="Rectangle 86" width="5" height="5" transform="translate(298 -0.034)" fill="#27debf"/>
      <rect id="Rectangle_87-6" data-name="Rectangle 87" width="6" height="5" transform="translate(274 -0.034)" fill="#27debf"/>
      <rect id="Rectangle_88-6" data-name="Rectangle 88" width="7" height="5" transform="translate(251 -0.034)" fill="#27debf"/>
      <rect id="Rectangle_89-6" data-name="Rectangle 89" width="6" height="5" transform="translate(229 -0.034)" fill="#27debf"/>
      <rect id="Rectangle_90-6" data-name="Rectangle 90" width="6" height="5" transform="translate(206 -0.034)" fill="#27debf"/>
      <rect id="Rectangle_91-6" data-name="Rectangle 91" width="6" height="5" transform="translate(183 -0.034)" fill="#27debf"/>
      <rect id="Rectangle_92-6" data-name="Rectangle 92" width="7" height="5" transform="translate(160 -0.034)" fill="#27debf"/>
      <rect id="Rectangle_93-6" data-name="Rectangle 93" width="6" height="5" transform="translate(138 -0.034)" fill="#27debf"/>
      <rect id="Rectangle_94-6" data-name="Rectangle 94" width="7" height="5" transform="translate(115 -0.034)" fill="#27debf"/>
      <rect id="Rectangle_95-6" data-name="Rectangle 95" width="7" height="5" transform="translate(91 -0.034)" fill="#27debf"/>
      <rect id="Rectangle_96-6" data-name="Rectangle 96" width="6" height="5" transform="translate(69 -0.034)" fill="#27debf"/>
      <rect id="Rectangle_97-6" data-name="Rectangle 97" width="6" height="5" transform="translate(46 -0.034)" fill="#27debf"/>
      <rect id="Rectangle_98-6" data-name="Rectangle 98" width="7" height="5" transform="translate(23 -0.034)" fill="#27debf"/>
      <rect id="Rectangle_99-6" data-name="Rectangle 99" width="7" height="5" transform="translate(0 -0.034)" fill="#27debf"/>
    </g>
    <g id="Group_110" data-name="Group 110" transform="translate(-4340.61 4666.565)">
      <rect id="Rectangle_86-7" data-name="Rectangle 86" width="5" height="6" transform="translate(298 -0.275)" fill="#27debf"/>
      <rect id="Rectangle_87-7" data-name="Rectangle 87" width="6" height="6" transform="translate(274 -0.275)" fill="#27debf"/>
      <rect id="Rectangle_88-7" data-name="Rectangle 88" width="7" height="6" transform="translate(251 -0.275)" fill="#27debf"/>
      <rect id="Rectangle_89-7" data-name="Rectangle 89" width="6" height="6" transform="translate(229 -0.275)" fill="#27debf"/>
      <rect id="Rectangle_90-7" data-name="Rectangle 90" width="6" height="6" transform="translate(206 -0.275)" fill="#27debf"/>
      <rect id="Rectangle_91-7" data-name="Rectangle 91" width="6" height="6" transform="translate(183 -0.275)" fill="#27debf"/>
      <rect id="Rectangle_92-7" data-name="Rectangle 92" width="7" height="6" transform="translate(160 -0.275)" fill="#27debf"/>
      <rect id="Rectangle_93-7" data-name="Rectangle 93" width="6" height="6" transform="translate(138 -0.275)" fill="#27debf"/>
      <rect id="Rectangle_94-7" data-name="Rectangle 94" width="7" height="6" transform="translate(115 -0.275)" fill="#27debf"/>
      <rect id="Rectangle_95-7" data-name="Rectangle 95" width="7" height="6" transform="translate(91 -0.275)" fill="#27debf"/>
      <rect id="Rectangle_96-7" data-name="Rectangle 96" width="6" height="6" transform="translate(69 -0.275)" fill="#27debf"/>
      <rect id="Rectangle_97-7" data-name="Rectangle 97" width="6" height="6" transform="translate(46 -0.275)" fill="#27debf"/>
      <rect id="Rectangle_98-7" data-name="Rectangle 98" width="7" height="6" transform="translate(23 -0.275)" fill="#27debf"/>
      <rect id="Rectangle_99-7" data-name="Rectangle 99" width="7" height="6" transform="translate(0 -0.275)" fill="#27debf"/>
    </g>
    <g id="Group_115" data-name="Group 115" transform="translate(-4340.61 4758.805)">
      <rect id="Rectangle_86-8" data-name="Rectangle 86" width="5" height="6" transform="translate(298 0.485)" fill="#27debf"/>
      <rect id="Rectangle_87-8" data-name="Rectangle 87" width="6" height="6" transform="translate(274 0.485)" fill="#27debf"/>
      <rect id="Rectangle_88-8" data-name="Rectangle 88" width="7" height="6" transform="translate(251 0.485)" fill="#27debf"/>
      <rect id="Rectangle_89-8" data-name="Rectangle 89" width="6" height="6" transform="translate(229 0.485)" fill="#27debf"/>
      <rect id="Rectangle_90-8" data-name="Rectangle 90" width="6" height="6" transform="translate(206 0.485)" fill="#27debf"/>
      <rect id="Rectangle_91-8" data-name="Rectangle 91" width="6" height="6" transform="translate(183 0.485)" fill="#27debf"/>
      <rect id="Rectangle_92-8" data-name="Rectangle 92" width="7" height="6" transform="translate(160 0.485)" fill="#27debf"/>
      <rect id="Rectangle_93-8" data-name="Rectangle 93" width="6" height="6" transform="translate(138 0.485)" fill="#27debf"/>
      <rect id="Rectangle_94-8" data-name="Rectangle 94" width="7" height="6" transform="translate(115 0.485)" fill="#27debf"/>
      <rect id="Rectangle_95-8" data-name="Rectangle 95" width="7" height="6" transform="translate(91 0.485)" fill="#27debf"/>
      <rect id="Rectangle_96-8" data-name="Rectangle 96" width="6" height="6" transform="translate(69 0.485)" fill="#27debf"/>
      <rect id="Rectangle_97-8" data-name="Rectangle 97" width="6" height="6" transform="translate(46 0.485)" fill="#27debf"/>
      <rect id="Rectangle_98-8" data-name="Rectangle 98" width="7" height="6" transform="translate(23 0.485)" fill="#27debf"/>
      <rect id="Rectangle_99-8" data-name="Rectangle 99" width="7" height="6" transform="translate(0 0.485)" fill="#27debf"/>
    </g>
    <g id="Group_99" data-name="Group 99" transform="translate(-4340.61 4499.194)">
      <rect id="Rectangle_86-9" data-name="Rectangle 86" width="5" height="7" transform="translate(298 0.097)" fill="#27debf"/>
      <rect id="Rectangle_87-9" data-name="Rectangle 87" width="6" height="7" transform="translate(274 0.097)" fill="#27debf"/>
      <rect id="Rectangle_88-9" data-name="Rectangle 88" width="7" height="7" transform="translate(251 0.097)" fill="#27debf"/>
      <rect id="Rectangle_89-9" data-name="Rectangle 89" width="6" height="7" transform="translate(229 0.097)" fill="#27debf"/>
      <rect id="Rectangle_90-9" data-name="Rectangle 90" width="6" height="7" transform="translate(206 0.097)" fill="#27debf"/>
      <rect id="Rectangle_91-9" data-name="Rectangle 91" width="6" height="7" transform="translate(183 0.097)" fill="#27debf"/>
      <rect id="Rectangle_92-9" data-name="Rectangle 92" width="7" height="7" transform="translate(160 0.097)" fill="#27debf"/>
      <rect id="Rectangle_93-9" data-name="Rectangle 93" width="6" height="7" transform="translate(138 0.097)" fill="#27debf"/>
      <rect id="Rectangle_94-9" data-name="Rectangle 94" width="7" height="7" transform="translate(115 0.097)" fill="#27debf"/>
      <rect id="Rectangle_95-9" data-name="Rectangle 95" width="7" height="7" transform="translate(91 0.097)" fill="#27debf"/>
      <rect id="Rectangle_96-9" data-name="Rectangle 96" width="6" height="7" transform="translate(69 0.097)" fill="#27debf"/>
      <rect id="Rectangle_97-9" data-name="Rectangle 97" width="6" height="7" transform="translate(46 0.097)" fill="#27debf"/>
      <rect id="Rectangle_98-9" data-name="Rectangle 98" width="7" height="7" transform="translate(23 0.097)" fill="#27debf"/>
      <rect id="Rectangle_99-9" data-name="Rectangle 99" width="7" height="7" transform="translate(0 0.097)" fill="#27debf"/>
    </g>
    <g id="Group_104" data-name="Group 104" transform="translate(-4340.61 4592.921)">
      <rect id="Rectangle_86-10" data-name="Rectangle 86" width="5" height="5" transform="translate(298 0.369)" fill="#27debf"/>
      <rect id="Rectangle_87-10" data-name="Rectangle 87" width="6" height="5" transform="translate(274 0.369)" fill="#27debf"/>
      <rect id="Rectangle_88-10" data-name="Rectangle 88" width="7" height="5" transform="translate(251 0.369)" fill="#27debf"/>
      <rect id="Rectangle_89-10" data-name="Rectangle 89" width="6" height="5" transform="translate(229 0.369)" fill="#27debf"/>
      <rect id="Rectangle_90-10" data-name="Rectangle 90" width="6" height="5" transform="translate(206 0.369)" fill="#27debf"/>
      <rect id="Rectangle_91-10" data-name="Rectangle 91" width="6" height="5" transform="translate(183 0.369)" fill="#27debf"/>
      <rect id="Rectangle_92-10" data-name="Rectangle 92" width="7" height="5" transform="translate(160 0.369)" fill="#27debf"/>
      <rect id="Rectangle_93-10" data-name="Rectangle 93" width="6" height="5" transform="translate(138 0.369)" fill="#27debf"/>
      <rect id="Rectangle_94-10" data-name="Rectangle 94" width="7" height="5" transform="translate(115 0.369)" fill="#27debf"/>
      <rect id="Rectangle_95-10" data-name="Rectangle 95" width="7" height="5" transform="translate(91 0.369)" fill="#27debf"/>
      <rect id="Rectangle_96-10" data-name="Rectangle 96" width="6" height="5" transform="translate(69 0.369)" fill="#27debf"/>
      <rect id="Rectangle_97-10" data-name="Rectangle 97" width="6" height="5" transform="translate(46 0.369)" fill="#27debf"/>
      <rect id="Rectangle_98-10" data-name="Rectangle 98" width="7" height="5" transform="translate(23 0.369)" fill="#27debf"/>
      <rect id="Rectangle_99-10" data-name="Rectangle 99" width="7" height="5" transform="translate(0 0.369)" fill="#27debf"/>
    </g>
    <g id="Group_109" data-name="Group 109" transform="translate(-4340.61 4685.162)">
      <rect id="Rectangle_86-11" data-name="Rectangle 86" width="5" height="5" transform="translate(298 0.129)" fill="#27debf"/>
      <rect id="Rectangle_87-11" data-name="Rectangle 87" width="6" height="5" transform="translate(274 0.129)" fill="#27debf"/>
      <rect id="Rectangle_88-11" data-name="Rectangle 88" width="7" height="5" transform="translate(251 0.129)" fill="#27debf"/>
      <rect id="Rectangle_89-11" data-name="Rectangle 89" width="6" height="5" transform="translate(229 0.129)" fill="#27debf"/>
      <rect id="Rectangle_90-11" data-name="Rectangle 90" width="6" height="5" transform="translate(206 0.129)" fill="#27debf"/>
      <rect id="Rectangle_91-11" data-name="Rectangle 91" width="6" height="5" transform="translate(183 0.129)" fill="#27debf"/>
      <rect id="Rectangle_92-11" data-name="Rectangle 92" width="7" height="5" transform="translate(160 0.129)" fill="#27debf"/>
      <rect id="Rectangle_93-11" data-name="Rectangle 93" width="6" height="5" transform="translate(138 0.129)" fill="#27debf"/>
      <rect id="Rectangle_94-11" data-name="Rectangle 94" width="7" height="5" transform="translate(115 0.129)" fill="#27debf"/>
      <rect id="Rectangle_95-11" data-name="Rectangle 95" width="7" height="5" transform="translate(91 0.129)" fill="#27debf"/>
      <rect id="Rectangle_96-11" data-name="Rectangle 96" width="6" height="5" transform="translate(69 0.129)" fill="#27debf"/>
      <rect id="Rectangle_97-11" data-name="Rectangle 97" width="6" height="5" transform="translate(46 0.129)" fill="#27debf"/>
      <rect id="Rectangle_98-11" data-name="Rectangle 98" width="7" height="5" transform="translate(23 0.129)" fill="#27debf"/>
      <rect id="Rectangle_99-11" data-name="Rectangle 99" width="7" height="5" transform="translate(0 0.129)" fill="#27debf"/>
    </g>
    <g id="Group_114" data-name="Group 114" transform="translate(-4340.61 4777.402)">
      <rect id="Rectangle_86-12" data-name="Rectangle 86" width="5" height="7" transform="translate(298 -0.111)" fill="#27debf"/>
      <rect id="Rectangle_87-12" data-name="Rectangle 87" width="6" height="7" transform="translate(274 -0.111)" fill="#27debf"/>
      <rect id="Rectangle_88-12" data-name="Rectangle 88" width="7" height="7" transform="translate(251 -0.111)" fill="#27debf"/>
      <rect id="Rectangle_89-12" data-name="Rectangle 89" width="6" height="7" transform="translate(229 -0.111)" fill="#27debf"/>
      <rect id="Rectangle_90-12" data-name="Rectangle 90" width="6" height="7" transform="translate(206 -0.111)" fill="#27debf"/>
      <rect id="Rectangle_91-12" data-name="Rectangle 91" width="6" height="7" transform="translate(183 -0.111)" fill="#27debf"/>
      <rect id="Rectangle_92-12" data-name="Rectangle 92" width="7" height="7" transform="translate(160 -0.111)" fill="#27debf"/>
      <rect id="Rectangle_93-12" data-name="Rectangle 93" width="6" height="7" transform="translate(138 -0.111)" fill="#27debf"/>
      <rect id="Rectangle_94-12" data-name="Rectangle 94" width="7" height="7" transform="translate(115 -0.111)" fill="#27debf"/>
      <rect id="Rectangle_95-12" data-name="Rectangle 95" width="7" height="7" transform="translate(91 -0.111)" fill="#27debf"/>
      <rect id="Rectangle_96-12" data-name="Rectangle 96" width="6" height="7" transform="translate(69 -0.111)" fill="#27debf"/>
      <rect id="Rectangle_97-12" data-name="Rectangle 97" width="6" height="7" transform="translate(46 -0.111)" fill="#27debf"/>
      <rect id="Rectangle_98-12" data-name="Rectangle 98" width="7" height="7" transform="translate(23 -0.111)" fill="#27debf"/>
      <rect id="Rectangle_99-12" data-name="Rectangle 99" width="7" height="7" transform="translate(0 -0.111)" fill="#27debf"/>
    </g>
    <g id="Group_100" data-name="Group 100" transform="translate(-4340.61 4517.791)">
      <rect id="Rectangle_86-13" data-name="Rectangle 86" width="5" height="6" transform="translate(298 0.5)" fill="#27debf"/>
      <rect id="Rectangle_87-13" data-name="Rectangle 87" width="6" height="6" transform="translate(274 0.5)" fill="#27debf"/>
      <rect id="Rectangle_88-13" data-name="Rectangle 88" width="7" height="6" transform="translate(251 0.5)" fill="#27debf"/>
      <rect id="Rectangle_89-13" data-name="Rectangle 89" width="6" height="6" transform="translate(229 0.5)" fill="#27debf"/>
      <rect id="Rectangle_90-13" data-name="Rectangle 90" width="6" height="6" transform="translate(206 0.5)" fill="#27debf"/>
      <rect id="Rectangle_91-13" data-name="Rectangle 91" width="6" height="6" transform="translate(183 0.5)" fill="#27debf"/>
      <rect id="Rectangle_92-13" data-name="Rectangle 92" width="7" height="6" transform="translate(160 0.5)" fill="#27debf"/>
      <rect id="Rectangle_93-13" data-name="Rectangle 93" width="6" height="6" transform="translate(138 0.5)" fill="#27debf"/>
      <rect id="Rectangle_94-13" data-name="Rectangle 94" width="7" height="6" transform="translate(115 0.5)" fill="#27debf"/>
      <rect id="Rectangle_95-13" data-name="Rectangle 95" width="7" height="6" transform="translate(91 0.5)" fill="#27debf"/>
      <rect id="Rectangle_96-13" data-name="Rectangle 96" width="6" height="6" transform="translate(69 0.5)" fill="#27debf"/>
      <rect id="Rectangle_97-13" data-name="Rectangle 97" width="6" height="6" transform="translate(46 0.5)" fill="#27debf"/>
      <rect id="Rectangle_98-13" data-name="Rectangle 98" width="7" height="6" transform="translate(23 0.5)" fill="#27debf"/>
      <rect id="Rectangle_99-13" data-name="Rectangle 99" width="7" height="6" transform="translate(0 0.5)" fill="#27debf"/>
    </g>
    <g id="Group_103" data-name="Group 103" transform="translate(-4340.61 4610.774)">
      <rect id="Rectangle_86-14" data-name="Rectangle 86" width="5" height="6" transform="translate(298 -0.484)" fill="#27debf"/>
      <rect id="Rectangle_87-14" data-name="Rectangle 87" width="6" height="6" transform="translate(274 -0.484)" fill="#27debf"/>
      <rect id="Rectangle_88-14" data-name="Rectangle 88" width="7" height="6" transform="translate(251 -0.484)" fill="#27debf"/>
      <rect id="Rectangle_89-14" data-name="Rectangle 89" width="6" height="6" transform="translate(229 -0.484)" fill="#27debf"/>
      <rect id="Rectangle_90-14" data-name="Rectangle 90" width="6" height="6" transform="translate(206 -0.484)" fill="#27debf"/>
      <rect id="Rectangle_91-14" data-name="Rectangle 91" width="6" height="6" transform="translate(183 -0.484)" fill="#27debf"/>
      <rect id="Rectangle_92-14" data-name="Rectangle 92" width="7" height="6" transform="translate(160 -0.484)" fill="#27debf"/>
      <rect id="Rectangle_93-14" data-name="Rectangle 93" width="6" height="6" transform="translate(138 -0.484)" fill="#27debf"/>
      <rect id="Rectangle_94-14" data-name="Rectangle 94" width="7" height="6" transform="translate(115 -0.484)" fill="#27debf"/>
      <rect id="Rectangle_95-14" data-name="Rectangle 95" width="7" height="6" transform="translate(91 -0.484)" fill="#27debf"/>
      <rect id="Rectangle_96-14" data-name="Rectangle 96" width="6" height="6" transform="translate(69 -0.484)" fill="#27debf"/>
      <rect id="Rectangle_97-14" data-name="Rectangle 97" width="6" height="6" transform="translate(46 -0.484)" fill="#27debf"/>
      <rect id="Rectangle_98-14" data-name="Rectangle 98" width="7" height="6" transform="translate(23 -0.484)" fill="#27debf"/>
      <rect id="Rectangle_99-14" data-name="Rectangle 99" width="7" height="6" transform="translate(0 -0.484)" fill="#27debf"/>
    </g>
    <g id="Group_108" data-name="Group 108" transform="translate(-4340.61 4703.759)">
      <rect id="Rectangle_86-15" data-name="Rectangle 86" width="5" height="6" transform="translate(298 -0.468)" fill="#27debf"/>
      <rect id="Rectangle_87-15" data-name="Rectangle 87" width="6" height="6" transform="translate(274 -0.468)" fill="#27debf"/>
      <rect id="Rectangle_88-15" data-name="Rectangle 88" width="7" height="6" transform="translate(251 -0.468)" fill="#27debf"/>
      <rect id="Rectangle_89-15" data-name="Rectangle 89" width="6" height="6" transform="translate(229 -0.468)" fill="#27debf"/>
      <rect id="Rectangle_90-15" data-name="Rectangle 90" width="6" height="6" transform="translate(206 -0.468)" fill="#27debf"/>
      <rect id="Rectangle_91-15" data-name="Rectangle 91" width="6" height="6" transform="translate(183 -0.468)" fill="#27debf"/>
      <rect id="Rectangle_92-15" data-name="Rectangle 92" width="7" height="6" transform="translate(160 -0.468)" fill="#27debf"/>
      <rect id="Rectangle_93-15" data-name="Rectangle 93" width="6" height="6" transform="translate(138 -0.468)" fill="#27debf"/>
      <rect id="Rectangle_94-15" data-name="Rectangle 94" width="7" height="6" transform="translate(115 -0.468)" fill="#27debf"/>
      <rect id="Rectangle_95-15" data-name="Rectangle 95" width="7" height="6" transform="translate(91 -0.468)" fill="#27debf"/>
      <rect id="Rectangle_96-15" data-name="Rectangle 96" width="6" height="6" transform="translate(69 -0.468)" fill="#27debf"/>
      <rect id="Rectangle_97-15" data-name="Rectangle 97" width="6" height="6" transform="translate(46 -0.468)" fill="#27debf"/>
      <rect id="Rectangle_98-15" data-name="Rectangle 98" width="7" height="6" transform="translate(23 -0.468)" fill="#27debf"/>
      <rect id="Rectangle_99-15" data-name="Rectangle 99" width="7" height="6" transform="translate(0 -0.468)" fill="#27debf"/>
    </g>
    <g id="Group_113" data-name="Group 113" transform="translate(-4340.61 4797.486)">
      <rect id="Rectangle_86-16" data-name="Rectangle 86" width="5" height="5" transform="translate(298 -0.196)" fill="#27debf"/>
      <rect id="Rectangle_87-16" data-name="Rectangle 87" width="6" height="5" transform="translate(274 -0.196)" fill="#27debf"/>
      <rect id="Rectangle_88-16" data-name="Rectangle 88" width="7" height="5" transform="translate(251 -0.196)" fill="#27debf"/>
      <rect id="Rectangle_89-16" data-name="Rectangle 89" width="6" height="5" transform="translate(229 -0.196)" fill="#27debf"/>
      <rect id="Rectangle_90-16" data-name="Rectangle 90" width="6" height="5" transform="translate(206 -0.196)" fill="#27debf"/>
      <rect id="Rectangle_91-16" data-name="Rectangle 91" width="6" height="5" transform="translate(183 -0.196)" fill="#27debf"/>
      <rect id="Rectangle_92-16" data-name="Rectangle 92" width="7" height="5" transform="translate(160 -0.196)" fill="#27debf"/>
      <rect id="Rectangle_93-16" data-name="Rectangle 93" width="6" height="5" transform="translate(138 -0.196)" fill="#27debf"/>
      <rect id="Rectangle_94-16" data-name="Rectangle 94" width="7" height="5" transform="translate(115 -0.196)" fill="#27debf"/>
      <rect id="Rectangle_95-16" data-name="Rectangle 95" width="7" height="5" transform="translate(91 -0.196)" fill="#27debf"/>
      <rect id="Rectangle_96-16" data-name="Rectangle 96" width="6" height="5" transform="translate(69 -0.196)" fill="#27debf"/>
      <rect id="Rectangle_97-16" data-name="Rectangle 97" width="6" height="5" transform="translate(46 -0.196)" fill="#27debf"/>
      <rect id="Rectangle_98-16" data-name="Rectangle 98" width="7" height="5" transform="translate(23 -0.196)" fill="#27debf"/>
      <rect id="Rectangle_99-16" data-name="Rectangle 99" width="7" height="5" transform="translate(0 -0.196)" fill="#27debf"/>
    </g>
    <g id="Group_101" data-name="Group 101" transform="translate(-4340.61 4536.387)">
      <rect id="Rectangle_86-17" data-name="Rectangle 86" width="5" height="5" transform="translate(298 -0.097)" fill="#27debf"/>
      <rect id="Rectangle_87-17" data-name="Rectangle 87" width="6" height="5" transform="translate(274 -0.097)" fill="#27debf"/>
      <rect id="Rectangle_88-17" data-name="Rectangle 88" width="7" height="5" transform="translate(251 -0.097)" fill="#27debf"/>
      <rect id="Rectangle_89-17" data-name="Rectangle 89" width="6" height="5" transform="translate(229 -0.097)" fill="#27debf"/>
      <rect id="Rectangle_90-17" data-name="Rectangle 90" width="6" height="5" transform="translate(206 -0.097)" fill="#27debf"/>
      <rect id="Rectangle_91-17" data-name="Rectangle 91" width="6" height="5" transform="translate(183 -0.097)" fill="#27debf"/>
      <rect id="Rectangle_92-17" data-name="Rectangle 92" width="7" height="5" transform="translate(160 -0.097)" fill="#27debf"/>
      <rect id="Rectangle_93-17" data-name="Rectangle 93" width="6" height="5" transform="translate(138 -0.097)" fill="#27debf"/>
      <rect id="Rectangle_94-17" data-name="Rectangle 94" width="7" height="5" transform="translate(115 -0.097)" fill="#27debf"/>
      <rect id="Rectangle_95-17" data-name="Rectangle 95" width="7" height="5" transform="translate(91 -0.097)" fill="#27debf"/>
      <rect id="Rectangle_96-17" data-name="Rectangle 96" width="6" height="5" transform="translate(69 -0.097)" fill="#27debf"/>
      <rect id="Rectangle_97-17" data-name="Rectangle 97" width="6" height="5" transform="translate(46 -0.097)" fill="#27debf"/>
      <rect id="Rectangle_98-17" data-name="Rectangle 98" width="7" height="5" transform="translate(23 -0.097)" fill="#27debf"/>
      <rect id="Rectangle_99-17" data-name="Rectangle 99" width="7" height="5" transform="translate(0 -0.097)" fill="#27debf"/>
    </g>
    <g id="Group_102" data-name="Group 102" transform="translate(-4340.61 4630.115)">
      <rect id="Rectangle_86-18" data-name="Rectangle 86" width="5" height="5" transform="translate(298 0.175)" fill="#27debf"/>
      <rect id="Rectangle_87-18" data-name="Rectangle 87" width="6" height="5" transform="translate(274 0.175)" fill="#27debf"/>
      <rect id="Rectangle_88-18" data-name="Rectangle 88" width="7" height="5" transform="translate(251 0.175)" fill="#27debf"/>
      <rect id="Rectangle_89-18" data-name="Rectangle 89" width="6" height="5" transform="translate(229 0.175)" fill="#27debf"/>
      <rect id="Rectangle_90-18" data-name="Rectangle 90" width="6" height="5" transform="translate(206 0.175)" fill="#27debf"/>
      <rect id="Rectangle_91-18" data-name="Rectangle 91" width="6" height="5" transform="translate(183 0.175)" fill="#27debf"/>
      <rect id="Rectangle_92-18" data-name="Rectangle 92" width="7" height="5" transform="translate(160 0.175)" fill="#27debf"/>
      <rect id="Rectangle_93-18" data-name="Rectangle 93" width="6" height="5" transform="translate(138 0.175)" fill="#27debf"/>
      <rect id="Rectangle_94-18" data-name="Rectangle 94" width="7" height="5" transform="translate(115 0.175)" fill="#27debf"/>
      <rect id="Rectangle_95-18" data-name="Rectangle 95" width="7" height="5" transform="translate(91 0.175)" fill="#27debf"/>
      <rect id="Rectangle_96-18" data-name="Rectangle 96" width="6" height="5" transform="translate(69 0.175)" fill="#27debf"/>
      <rect id="Rectangle_97-18" data-name="Rectangle 97" width="6" height="5" transform="translate(46 0.175)" fill="#27debf"/>
      <rect id="Rectangle_98-18" data-name="Rectangle 98" width="7" height="5" transform="translate(23 0.175)" fill="#27debf"/>
      <rect id="Rectangle_99-18" data-name="Rectangle 99" width="7" height="5" transform="translate(0 0.175)" fill="#27debf"/>
    </g>
    <g id="Group_107" data-name="Group 107" transform="translate(-4340.61 4722.355)">
      <rect id="Rectangle_86-19" data-name="Rectangle 86" width="5" height="7" transform="translate(298 -0.065)" fill="#27debf"/>
      <rect id="Rectangle_87-19" data-name="Rectangle 87" width="6" height="7" transform="translate(274 -0.065)" fill="#27debf"/>
      <rect id="Rectangle_88-19" data-name="Rectangle 88" width="7" height="7" transform="translate(251 -0.065)" fill="#27debf"/>
      <rect id="Rectangle_89-19" data-name="Rectangle 89" width="6" height="7" transform="translate(229 -0.065)" fill="#27debf"/>
      <rect id="Rectangle_90-19" data-name="Rectangle 90" width="6" height="7" transform="translate(206 -0.065)" fill="#27debf"/>
      <rect id="Rectangle_91-19" data-name="Rectangle 91" width="6" height="7" transform="translate(183 -0.065)" fill="#27debf"/>
      <rect id="Rectangle_92-19" data-name="Rectangle 92" width="7" height="7" transform="translate(160 -0.065)" fill="#27debf"/>
      <rect id="Rectangle_93-19" data-name="Rectangle 93" width="6" height="7" transform="translate(138 -0.065)" fill="#27debf"/>
      <rect id="Rectangle_94-19" data-name="Rectangle 94" width="7" height="7" transform="translate(115 -0.065)" fill="#27debf"/>
      <rect id="Rectangle_95-19" data-name="Rectangle 95" width="7" height="7" transform="translate(91 -0.065)" fill="#27debf"/>
      <rect id="Rectangle_96-19" data-name="Rectangle 96" width="6" height="7" transform="translate(69 -0.065)" fill="#27debf"/>
      <rect id="Rectangle_97-19" data-name="Rectangle 97" width="6" height="7" transform="translate(46 -0.065)" fill="#27debf"/>
      <rect id="Rectangle_98-19" data-name="Rectangle 98" width="7" height="7" transform="translate(23 -0.065)" fill="#27debf"/>
      <rect id="Rectangle_99-19" data-name="Rectangle 99" width="7" height="7" transform="translate(0 -0.065)" fill="#27debf"/>
    </g>
    <g id="Group_112" data-name="Group 112" transform="translate(-4340.61 4815.339)">
      <rect id="Rectangle_86-20" data-name="Rectangle 86" width="5" height="6" transform="translate(298 -0.049)" fill="#27debf"/>
      <rect id="Rectangle_87-20" data-name="Rectangle 87" width="6" height="6" transform="translate(274 -0.049)" fill="#27debf"/>
      <rect id="Rectangle_88-20" data-name="Rectangle 88" width="7" height="6" transform="translate(251 -0.049)" fill="#27debf"/>
      <rect id="Rectangle_89-20" data-name="Rectangle 89" width="6" height="6" transform="translate(229 -0.049)" fill="#27debf"/>
      <rect id="Rectangle_90-20" data-name="Rectangle 90" width="6" height="6" transform="translate(206 -0.049)" fill="#27debf"/>
      <rect id="Rectangle_91-20" data-name="Rectangle 91" width="6" height="6" transform="translate(183 -0.049)" fill="#27debf"/>
      <rect id="Rectangle_92-20" data-name="Rectangle 92" width="7" height="6" transform="translate(160 -0.049)" fill="#27debf"/>
      <rect id="Rectangle_93-20" data-name="Rectangle 93" width="6" height="6" transform="translate(138 -0.049)" fill="#27debf"/>
      <rect id="Rectangle_94-20" data-name="Rectangle 94" width="7" height="6" transform="translate(115 -0.049)" fill="#27debf"/>
      <rect id="Rectangle_95-20" data-name="Rectangle 95" width="7" height="6" transform="translate(91 -0.049)" fill="#27debf"/>
      <rect id="Rectangle_96-20" data-name="Rectangle 96" width="6" height="6" transform="translate(69 -0.049)" fill="#27debf"/>
      <rect id="Rectangle_97-20" data-name="Rectangle 97" width="6" height="6" transform="translate(46 -0.049)" fill="#27debf"/>
      <rect id="Rectangle_98-20" data-name="Rectangle 98" width="7" height="6" transform="translate(23 -0.049)" fill="#27debf"/>
      <rect id="Rectangle_99-20" data-name="Rectangle 99" width="7" height="6" transform="translate(0 -0.049)" fill="#27debf"/>
    </g>
  </g>
</svg>
