<svg xmlns="http://www.w3.org/2000/svg" xmlns:xlink="http://www.w3.org/1999/xlink" viewBox="0 0 80 80" version="1.1" width="80" height="80" style="fill: rgb(0, 0, 0);">
<g id="surface1">
<path style=" " d="M 25 24 C 16.175781 24 9 31.175781 9 40 L 9 41 L 9.101563 41 C 9.628906 49.351563 16.519531 56 25 56 L 55 56 C 55.539063 56 56.070313 55.972656 56.597656 55.921875 C 56.832031 55.894531 57.0625 55.851563 57.296875 55.816406 C 57.578125 55.773438 57.867188 55.742188 58.144531 55.6875 C 58.417969 55.632813 58.683594 55.554688 58.953125 55.484375 C 59.179688 55.429688 59.410156 55.378906 59.636719 55.3125 C 59.992188 55.203125 60.335938 55.070313 60.683594 54.9375 C 60.796875 54.894531 60.914063 54.859375 61.027344 54.8125 C 61.453125 54.636719 61.867188 54.441406 62.273438 54.234375 C 62.296875 54.222656 62.316406 54.214844 62.339844 54.203125 C 62.34375 54.199219 62.347656 54.199219 62.351563 54.199219 C 67.203125 51.675781 70.589844 46.746094 70.949219 41 L 71 41 L 71 40 C 71 39.449219 70.972656 38.902344 70.917969 38.363281 C 70.371094 32.992188 67.15625 28.398438 62.621094 25.933594 C 60.355469 24.699219 57.757813 24 55 24 Z M 25 26 L 47.269531 26 C 46.65625 26.339844 46.0625 26.722656 45.5 27.136719 C 45.351563 27.046875 45.175781 27 45 27 C 44.449219 27 44 27.449219 44 28 C 44 28.117188 44.023438 28.234375 44.0625 28.34375 C 43.480469 28.890625 42.9375 29.476563 42.441406 30.105469 C 42.304688 30.035156 42.152344 30 42 30 C 41.449219 30 41 30.449219 41 31 C 41 31.273438 41.113281 31.539063 41.3125 31.726563 C 40.007813 33.875 39.199219 36.351563 39.035156 39 C 39.023438 39 39.011719 39 39 39 C 38.449219 39 38 39.449219 38 40 C 38 40.550781 38.449219 41 39 41 C 39.011719 41 39.023438 41 39.035156 41 C 39.199219 43.648438 40.007813 46.125 41.3125 48.273438 C 41.113281 48.460938 41 48.726563 41 49 C 41 49.550781 41.449219 50 42 50 C 42.152344 50 42.304688 49.964844 42.441406 49.894531 C 42.9375 50.523438 43.480469 51.109375 44.0625 51.65625 C 44.023438 51.765625 44 51.882813 44 52 C 44 52.550781 44.449219 53 45 53 C 45.175781 53 45.351563 52.953125 45.5 52.863281 C 46.0625 53.277344 46.65625 53.660156 47.269531 54 L 25 54 C 18.609375 54 13.242188 49.738281 11.558594 43.894531 C 11.695313 43.964844 11.847656 44 12 44 C 12.550781 44 13 43.550781 13 43 C 13 42.449219 12.550781 42 12 42 C 11.695313 42 11.40625 42.140625 11.21875 42.378906 C 11.085938 41.605469 11 40.8125 11 40 C 11 39.1875 11.085938 38.394531 11.21875 37.621094 C 11.40625 37.859375 11.695313 38 12 38 C 12.550781 38 13 37.550781 13 37 C 13 36.449219 12.550781 36 12 36 C 11.847656 36 11.695313 36.035156 11.558594 36.105469 C 13.242188 30.261719 18.609375 26 25 26 Z M 55 26 C 62.742188 26 69 32.257813 69 40 C 69 47.257813 63.5 53.210938 56.433594 53.925781 C 55.960938 53.976563 55.484375 54 55 54 C 47.257813 54 41 47.742188 41 40 C 41 32.257813 47.257813 26 55 26 Z M 21 27 C 20.449219 27 20 27.449219 20 28 C 20 28.550781 20.449219 29 21 29 C 21.550781 29 22 28.550781 22 28 C 22 27.449219 21.550781 27 21 27 Z M 27 27 C 26.449219 27 26 27.449219 26 28 C 26 28.550781 26.449219 29 27 29 C 27.550781 29 28 28.550781 28 28 C 28 27.449219 27.550781 27 27 27 Z M 33 27 C 32.449219 27 32 27.449219 32 28 C 32 28.550781 32.449219 29 33 29 C 33.550781 29 34 28.550781 34 28 C 34 27.449219 33.550781 27 33 27 Z M 39 27 C 38.449219 27 38 27.449219 38 28 C 38 28.550781 38.449219 29 39 29 C 39.550781 29 40 28.550781 40 28 C 40 27.449219 39.550781 27 39 27 Z M 18 30 C 17.449219 30 17 30.449219 17 31 C 17 31.550781 17.449219 32 18 32 C 18.550781 32 19 31.550781 19 31 C 19 30.449219 18.550781 30 18 30 Z M 24 30 C 23.449219 30 23 30.449219 23 31 C 23 31.550781 23.449219 32 24 32 C 24.550781 32 25 31.550781 25 31 C 25 30.449219 24.550781 30 24 30 Z M 30 30 C 29.449219 30 29 30.449219 29 31 C 29 31.550781 29.449219 32 30 32 C 30.550781 32 31 31.550781 31 31 C 31 30.449219 30.550781 30 30 30 Z M 36 30 C 35.449219 30 35 30.449219 35 31 C 35 31.550781 35.449219 32 36 32 C 36.550781 32 37 31.550781 37 31 C 37 30.449219 36.550781 30 36 30 Z M 15 33 C 14.449219 33 14 33.449219 14 34 C 14 34.550781 14.449219 35 15 35 C 15.550781 35 16 34.550781 16 34 C 16 33.449219 15.550781 33 15 33 Z M 21 33 C 20.449219 33 20 33.449219 20 34 C 20 34.550781 20.449219 35 21 35 C 21.550781 35 22 34.550781 22 34 C 22 33.449219 21.550781 33 21 33 Z M 27 33 C 26.449219 33 26 33.449219 26 34 C 26 34.550781 26.449219 35 27 35 C 27.550781 35 28 34.550781 28 34 C 28 33.449219 27.550781 33 27 33 Z M 33 33 C 32.449219 33 32 33.449219 32 34 C 32 34.550781 32.449219 35 33 35 C 33.550781 35 34 34.550781 34 34 C 34 33.449219 33.550781 33 33 33 Z M 39 33 C 38.449219 33 38 33.449219 38 34 C 38 34.550781 38.449219 35 39 35 C 39.550781 35 40 34.550781 40 34 C 40 33.449219 39.550781 33 39 33 Z M 18 36 C 17.449219 36 17 36.449219 17 37 C 17 37.550781 17.449219 38 18 38 C 18.550781 38 19 37.550781 19 37 C 19 36.449219 18.550781 36 18 36 Z M 24 36 C 23.449219 36 23 36.449219 23 37 C 23 37.550781 23.449219 38 24 38 C 24.550781 38 25 37.550781 25 37 C 25 36.449219 24.550781 36 24 36 Z M 30 36 C 29.449219 36 29 36.449219 29 37 C 29 37.550781 29.449219 38 30 38 C 30.550781 38 31 37.550781 31 37 C 31 36.449219 30.550781 36 30 36 Z M 36 36 C 35.449219 36 35 36.449219 35 37 C 35 37.550781 35.449219 38 36 38 C 36.550781 38 37 37.550781 37 37 C 37 36.449219 36.550781 36 36 36 Z M 15 39 C 14.449219 39 14 39.449219 14 40 C 14 40.550781 14.449219 41 15 41 C 15.550781 41 16 40.550781 16 40 C 16 39.449219 15.550781 39 15 39 Z M 21 39 C 20.449219 39 20 39.449219 20 40 C 20 40.550781 20.449219 41 21 41 C 21.550781 41 22 40.550781 22 40 C 22 39.449219 21.550781 39 21 39 Z M 27 39 C 26.449219 39 26 39.449219 26 40 C 26 40.550781 26.449219 41 27 41 C 27.550781 41 28 40.550781 28 40 C 28 39.449219 27.550781 39 27 39 Z M 33 39 C 32.449219 39 32 39.449219 32 40 C 32 40.550781 32.449219 41 33 41 C 33.550781 41 34 40.550781 34 40 C 34 39.449219 33.550781 39 33 39 Z M 18 42 C 17.449219 42 17 42.449219 17 43 C 17 43.550781 17.449219 44 18 44 C 18.550781 44 19 43.550781 19 43 C 19 42.449219 18.550781 42 18 42 Z M 24 42 C 23.449219 42 23 42.449219 23 43 C 23 43.550781 23.449219 44 24 44 C 24.550781 44 25 43.550781 25 43 C 25 42.449219 24.550781 42 24 42 Z M 30 42 C 29.449219 42 29 42.449219 29 43 C 29 43.550781 29.449219 44 30 44 C 30.550781 44 31 43.550781 31 43 C 31 42.449219 30.550781 42 30 42 Z M 36 42 C 35.449219 42 35 42.449219 35 43 C 35 43.550781 35.449219 44 36 44 C 36.550781 44 37 43.550781 37 43 C 37 42.449219 36.550781 42 36 42 Z M 15 45 C 14.449219 45 14 45.449219 14 46 C 14 46.550781 14.449219 47 15 47 C 15.550781 47 16 46.550781 16 46 C 16 45.449219 15.550781 45 15 45 Z M 21 45 C 20.449219 45 20 45.449219 20 46 C 20 46.550781 20.449219 47 21 47 C 21.550781 47 22 46.550781 22 46 C 22 45.449219 21.550781 45 21 45 Z M 27 45 C 26.449219 45 26 45.449219 26 46 C 26 46.550781 26.449219 47 27 47 C 27.550781 47 28 46.550781 28 46 C 28 45.449219 27.550781 45 27 45 Z M 33 45 C 32.449219 45 32 45.449219 32 46 C 32 46.550781 32.449219 47 33 47 C 33.550781 47 34 46.550781 34 46 C 34 45.449219 33.550781 45 33 45 Z M 39 45 C 38.449219 45 38 45.449219 38 46 C 38 46.550781 38.449219 47 39 47 C 39.550781 47 40 46.550781 40 46 C 40 45.449219 39.550781 45 39 45 Z M 18 48 C 17.449219 48 17 48.449219 17 49 C 17 49.550781 17.449219 50 18 50 C 18.550781 50 19 49.550781 19 49 C 19 48.449219 18.550781 48 18 48 Z M 24 48 C 23.449219 48 23 48.449219 23 49 C 23 49.550781 23.449219 50 24 50 C 24.550781 50 25 49.550781 25 49 C 25 48.449219 24.550781 48 24 48 Z M 30 48 C 29.449219 48 29 48.449219 29 49 C 29 49.550781 29.449219 50 30 50 C 30.550781 50 31 49.550781 31 49 C 31 48.449219 30.550781 48 30 48 Z M 36 48 C 35.449219 48 35 48.449219 35 49 C 35 49.550781 35.449219 50 36 50 C 36.550781 50 37 49.550781 37 49 C 37 48.449219 36.550781 48 36 48 Z M 21 51 C 20.449219 51 20 51.449219 20 52 C 20 52.550781 20.449219 53 21 53 C 21.550781 53 22 52.550781 22 52 C 22 51.449219 21.550781 51 21 51 Z M 27 51 C 26.449219 51 26 51.449219 26 52 C 26 52.550781 26.449219 53 27 53 C 27.550781 53 28 52.550781 28 52 C 28 51.449219 27.550781 51 27 51 Z M 33 51 C 32.449219 51 32 51.449219 32 52 C 32 52.550781 32.449219 53 33 53 C 33.550781 53 34 52.550781 34 52 C 34 51.449219 33.550781 51 33 51 Z M 39 51 C 38.449219 51 38 51.449219 38 52 C 38 52.550781 38.449219 53 39 53 C 39.550781 53 40 52.550781 40 52 C 40 51.449219 39.550781 51 39 51 Z "/>
</g>
</svg>